<?xml version="1.0" standalone="no"?>
<!DOCTYPE svg PUBLIC "-//W3C//DTD SVG 1.1//EN" "http://www.w3.org/Graphics/SVG/1.1/DTD/svg11.dtd" >
<svg xmlns="http://www.w3.org/2000/svg">
<metadata>
Created by FontForge 20120731 at Mon May 29 09:02:12 2017
 By admin
</metadata>
<defs>
<font id="iconfont" horiz-adv-x="1024" >
  <font-face 
    font-family="iconfont"
    font-weight="500"
    font-stretch="normal"
    units-per-em="1024"
    panose-1="2 0 6 3 0 0 0 0 0 0"
    ascent="896"
    descent="-128"
    x-height="792"
    bbox="0 -212 1098 896"
    underline-thickness="0"
    underline-position="0"
    unicode-range="U+0078-E86B"
  />
<missing-glyph 
 />
    <glyph glyph-name=".notdef" 
 />
    <glyph glyph-name=".notdef" 
 />
    <glyph glyph-name=".null" horiz-adv-x="0" 
 />
    <glyph glyph-name="nonmarkingreturn" horiz-adv-x="341" 
 />
    <glyph glyph-name="x" unicode="x" horiz-adv-x="1001" 
d="M281 543q-27 -1 -53 -1h-83q-18 0 -36.5 -6t-32.5 -18.5t-23 -32t-9 -45.5v-76h912v41q0 16 -0.5 30t-0.5 18q0 13 -5 29t-17 29.5t-31.5 22.5t-49.5 9h-133v-97h-438v97zM955 310v-52q0 -23 0.5 -52t0.5 -58t-10.5 -47.5t-26 -30t-33 -16t-31.5 -4.5q-14 -1 -29.5 -0.5
t-29.5 0.5h-32l-45 128h-439l-44 -128h-29h-34q-20 0 -45 1q-25 0 -41 9.5t-25.5 23t-13.5 29.5t-4 30v167h911zM163 247q-12 0 -21 -8.5t-9 -21.5t9 -21.5t21 -8.5q13 0 22 8.5t9 21.5t-9 21.5t-22 8.5zM316 123q-8 -26 -14 -48q-5 -19 -10.5 -37t-7.5 -25t-3 -15t1 -14.5
t9.5 -10.5t21.5 -4h37h67h81h80h64h36q23 0 34 12t2 38q-5 13 -9.5 30.5t-9.5 34.5q-5 19 -11 39h-368zM336 498v228q0 11 2.5 23t10 21.5t20.5 15.5t34 6h188q31 0 51.5 -14.5t20.5 -52.5v-227h-327z" />
    <glyph glyph-name="jiami" unicode="&#xe600;" horiz-adv-x="1000" 
d="M602 346h-175q-21 0 -39.5 -18t-18.5 -40l58 -175q0 -21 18.5 -39.5t40.5 -18.5h58q21 0 39.5 18.5t18.5 39.5l58 175q0 22 -18.5 40t-39.5 18zM544 113h-58l-59 175h175zM835 521h-117v174q0 22 -18.5 40t-39.5 18h-291q-21 0 -39.5 -18t-18.5 -40v-174h-116
q-22 0 -40.5 -18.5t-18.5 -39.5v-524q0 -22 18.5 -40t40.5 -18h640q21 0 39.5 18t18.5 40v524q0 21 -18.5 39.5t-39.5 18.5zM369 695h291v-174h-291v174zM835 -61h-640v524h174h291h175v-524z" />
    <glyph glyph-name="3d" unicode="&#xe63a;" 
d="M612 175h150v250h-150v-250zM917 675h-810q-39 0 -67 -27.5t-28 -66.5v-562q0 -39 28 -66.5t67 -27.5h810q39 0 67 27.5t28 66.5v562q0 39 -28 66.5t-67 27.5zM462 325l-50 -25l50 -25v-150l-49 -50h-251v100h200v80h-200v90h200v80h-200v100h250l50 -50v-150zM862 125
l-50 -50h-300v450h300l50 -50v-350z" />
    <glyph glyph-name="bianji" unicode="&#xe77d;" 
d="M250 30l202 86l-124 122zM848 505l-127 131l-370 -365l133 -137zM953 662q-34 37 -73 66q-17 12 -34 12t-26 -6l-8 -6l-66 -66l134 -133q56 57 73 76q8 9 8 23t-4 24zM811 -38q0 -7 -5 -12t-12 -5h-622q-7 0 -12 5t-5 12v617q0 7 5 12t12 5h396l82 87h-563q-8 0 -14 -6
t-6 -14v-786q0 -8 6 -14t14 -6h792q8 0 14 6t6 14v562l-88 -82v-395z" />
    <glyph glyph-name="liuyan" unicode="&#xe794;" 
d="M471 113q7 -1 18.5 -1.5t45.5 2t64.5 10t68.5 28t66 51t48.5 83t23.5 120.5q3 -1 9 -2t23 -6.5t32 -13.5t33.5 -24t31 -36t20.5 -51t7 -68q0 -3 -0.5 -9t-3.5 -24t-8 -34.5t-16.5 -37t-27 -35.5t-40.5 -26.5t-56 -14.5l-4 -106q-2 -4 -5.5 -8t-15 -5t-23.5 13l-92 92
q-6 0 -20 1t-44.5 7t-57 16t-49.5 30.5t-28 48.5zM406 689q-7 1 -20 2t-49 -0.5t-69 -7.5t-73 -23.5t-68 -44t-46.5 -72.5t-16.5 -106v-7.5t1 -18.5t3.5 -28t8.5 -34.5t15 -39t24 -40t34.5 -39.5t48 -35t62.5 -29l-1 -134q0 -2 0.5 -4.5t4 -8.5t8.5 -8.5t16.5 1.5t26.5 15
l128 142l27 168l-250 -3l-2 46l252 -1l125 85l-378 2v57l369 -2l166 -1q-2 6 -6 16t-19.5 36.5t-34.5 48t-53 41.5t-73 26zM444 169l27 170v0v40l127 87v54h155v-157q-2 -7 -5.5 -19t-18.5 -43t-34 -56t-53 -47.5t-73 -28.5h-125z" />
    <glyph glyph-name="font" unicode="&#xe6e2;" 
d="M451 493l-97 -258q19 0 78 -1t91 -1q11 0 33 1q-50 145 -105 259zM37 -139l1 45q13 4 32 7.5t32.5 6t28 8t25.5 16.5t18 29l135 352l160 414h73q5 -8 7 -12l117 -274q19 -45 60.5 -147.5t64.5 -156.5q9 -20 33.5 -83t41.5 -96q11 -26 20 -33q11 -8 50 -16.5t48 -11.5
q3 -22 3 -33q0 -2 3 -7.5t3 -7.5q-36 0 -108.5 4.5t-109.5 4.5q-43 0 -122.5 -4t-101.5 -4q0 24 2 44l75 16q1 0 7.5 1.5t8.5 2t8 2.5t8.5 4t6.5 4.5t5.5 6t1.5 8.5q0 9 -18 55t-41.5 101.5t-23.5 57.5l-257 1q-15 -33 -44 -112t-29 -93q0 -12 8 -21t25 -14t28 -8t32.5 -5
t23.5 -2v-33q0 -5 -1 -16q-33 0 -99.5 6t-99.5 6q-5 0 -15.5 -2.5t-12.5 -2.5q-45 -8 -107 -8h-6z" />
    <glyph glyph-name="wendang" unicode="&#xe60e;" 
d="M406 427h-211q-5 0 -8.5 -4t-3.5 -9t3.5 -8.5t8.5 -3.5h211q5 0 8.5 3.5t3.5 8.5t-3.5 9t-8.5 4zM406 324h-211q-5 0 -8.5 -3.5t-3.5 -9t3.5 -9t8.5 -3.5h211q5 0 8.5 3.5t3.5 9t-3.5 9t-8.5 3.5zM406 222h-211q-5 0 -8.5 -4t-3.5 -9t3.5 -8.5t8.5 -3.5h211q5 0 8.5 3.5
t3.5 8.5t-3.5 9t-8.5 4zM604 414q0 -5 3.5 -8.5t8.5 -3.5h211q5 0 8.5 3.5t3.5 8.5t-3.5 9t-8.5 4h-211q-5 0 -8.5 -4t-3.5 -9zM827 324h-211q-5 0 -8.5 -3.5t-3.5 -9t3.5 -9t8.5 -3.5h211q5 0 8.5 3.5t3.5 9t-3.5 9t-8.5 3.5zM827 222h-211q-5 0 -8.5 -4t-3.5 -9t3.5 -8.5
t8.5 -3.5h211q5 0 8.5 3.5t3.5 8.5t-3.5 9t-8.5 4zM720 638q-146 0 -209 -42q-62 42 -208 42q-44 0 -84.5 -5t-76.5 -15.5t-57.5 -29t-21.5 -43.5v-544q0 -15 11 -24t26 -7q93 16 202.5 16t203.5 -16h1h1h2.5h0.5h5h1q93 16 202.5 16t203.5 -16h5q12 0 20 7q12 9 12 24v544
q0 25 -21.5 43.5t-57.5 29t-76.5 15.5t-84.5 5zM125 37v505q12 11 60.5 22t117.5 11t117 -11t60 -22v-505q-84 12 -177 12t-178 -12zM897 37q-177 24 -355 0v505q12 11 60.5 22t117.5 11t117 -11t60 -22v-505v0z" />
    <glyph glyph-name="icon" unicode="&#xe601;" 
d="M846 607h-167v55q0 24 -16.5 40t-39.5 16h-224q-23 0 -39.5 -16t-16.5 -40v-55h-167q-46 0 -79 -33t-33 -79v-503q0 -46 33 -79t79 -33h670q47 0 79.5 33t32.5 79v503q0 46 -32.5 79t-79.5 33zM399 634q0 12 8.5 20t19.5 8h168q11 0 19.5 -8t8.5 -20v-27h-224v27zM902 -8
q0 -23 -16.5 -39.5t-39.5 -16.5h-670q-23 0 -39.5 16.5t-16.5 39.5v307h283q-4 -15 -4 -28q0 -46 33 -78.5t79 -32.5t79 32.5t33 78.5q0 13 -4 28h283v-307v0zM455 271q0 15 8 28h96q8 -13 8 -28q0 -23 -16.5 -39.5t-39.5 -16.5t-39.5 16.5t-16.5 39.5zM902 355h-782v140
q0 23 16.5 39.5t39.5 16.5h670q23 0 39.5 -16.5t16.5 -39.5v-140v0z" />
    <glyph glyph-name="shuji" unicode="&#xe602;" 
d="M795 611v-615h-497q-29 0 -50 21t-21 50t21 50t50 21h450v568h-474q-39 0 -66.5 -28t-27.5 -67v-568q0 -39 27.5 -66.5t66.5 -27.5h568v662h-47zM322 91h426v-48h-426v48z" />
    <glyph glyph-name="socialcss3" unicode="&#xe86b;" 
d="M513 133zM128 748l70 -806l314 -90l314 90l70 806h-768zM709 78l-197 -56l-197 56l-13 156h96l7 -79l107 -30l1 -1v0l107 30l11 128h-225l-8 100h241l9 102h-368l-8 98h481z" />
    <glyph glyph-name="iconqietu05" unicode="&#xe604;" 
d="M438 -16.5q28 -66.5 85 -97.5t109 -8.5t69 85t-11.5 129t-85.5 97.5t-109 8.5t-68.5 -85t11.5 -129zM519 141.5q34 14.5 71 -5.5t55.5 -63t7.5 -84t-45 -55.5t-71 5.5t-55.5 63.5t-7.5 84t45 55zM616 341q-13 -55 27 -106t110 -67.5t129 10.5t72 82t-27 106t-110 68
t-129 -10.5t-72 -82.5zM805.5 387q45.5 -11 72 -44t17.5 -69t-47 -53.5t-83.5 -6.5t-72 44t-17.5 69t47 53.5t83.5 6.5zM501 316.5q-8 -9.5 -20 -10.5t-21 7t-10 20t6.5 21.5t19.5 10.5t21.5 -7t10.5 -20t-7 -21.5zM570 202l-20 67q-1 3 1 5.5t5 1.5l68 -10l-6 26q-1 3 -5 4
l-78 12q-3 1 -5 -2l-30 -35l-34 5l18 -29q1 -3 5 -4q18 -2 30 7q6 5 8 -2q6 -16 12 -42q1 -4 6 -4h25zM502 200l-22 64q-3 10 -14 12l-334 64q-9 2 -13 10l-18 40l-0.5 1.5t-1.5 4t0 3.5l21 -1l376 -10q11 0 16 -9l12 -23q4 -8 13 -9l78 -13l8 28l-54 8q-11 1 -15 11l-8 23
q-5 12 -17 12l-439 12q-3 0 -7.5 -2t-10.5 -8.5t-4 -16t9 -27t13 -30.5l6 -13q1 -12 28 -18q26 -6 322 -62q9 -2 13 -11l20 -55zM548 398l-109 290q-1 4 -3.5 9t-11 13.5t-17.5 8.5l-49 9q-1 -1 -9 1t-18 -4t-12 -20q6 -34 57 -278q2 -8 3 -8q2 1 3 1l24 -1l-55 271
q-1 5 2 7.5t7 1.5l44 -10q4 -1 6 -5l100 -265q1 -3 4 -4z" />
    <glyph glyph-name="ui" unicode="&#xe7ba;" 
d="M911 603l-335 193q-26 15 -63.5 15t-63.5 -15l-335 -193q-26 -15 -44.5 -47.5t-18.5 -62.5v-387q0 -30 18.5 -62.5t44.5 -47.5l335 -193q26 -15 63.5 -15t63.5 15l335 193q26 15 44.5 47.5t18.5 62.5v387q0 30 -18.5 62.5t-44.5 47.5v0zM622 299q0 -92 -65.5 -157.5
t-158 -65.5t-157.5 65.5t-65 157.5v0v171q0 22 15.5 37.5t37 15.5t37 -15.5t15.5 -37.5v-170q0 -49 34.5 -83.5t83.5 -34.5t83 34.5t34 83.5v170q0 22 15.5 37.5t37.5 15.5t37.5 -15.5t15.5 -37.5v-171v0zM849 129q0 -22 -15.5 -37.5t-37 -15.5t-37 15.5t-15.5 37.5v341
q0 22 15.5 37.5t37 15.5t37 -15.5t15.5 -37.5v-341v0zM849 129z" />
    <glyph glyph-name="jiazaidonghua" unicode="&#xe694;" 
d="M323 109q0 -27 -19.5 -46.5t-47.5 -19.5q-27 0 -46.5 19.5t-19.5 46.5q0 28 19.5 47.5t47 19.5t47 -19.5t19.5 -47.5v0zM581 2q0 -27 -19.5 -46.5t-47 -19.5t-47 19.5t-19.5 47t19.5 47t47 19.5t47 -19.5t19.5 -47.5v0zM216 367q0 -27 -19.5 -46.5t-47 -19.5t-47 19.5
t-19.5 47t19.5 47t47 19.5t47 -19.5t19.5 -47.5v0zM839 109q0 -27 -19.5 -46.5t-46.5 -19.5q-28 0 -47.5 19.5t-19.5 47t19.5 47t47 19.5t47 -19.5t19.5 -47.5v0zM339 626q0 -35 -24 -59t-58.5 -24t-59 24t-24.5 58.5t24.5 59t59 24.5t58.5 -24.5t24 -58.5v0zM946 367
q0 -27 -19.5 -46.5t-47 -19.5t-47 19.5t-19.5 47t19.5 47t47 19.5t47 -19.5t19.5 -47.5v0zM614 732q0 -41 -29 -70t-70.5 -29t-70.5 29t-29 70.5t29 70.5t70.5 29t70.5 -29t29 -71v0zM889 626q0 -49 -34 -83t-82 -34t-82 34t-34 83q0 47 34 81.5t82 34.5t82 -34.5t34 -81.5
v0z" />
    <glyph glyph-name="html-copy" unicode="&#xe603;" 
d="M38 895h948l-77 -900l-402 -123l-383 123zM797 623l23 137l-611 1l40 -409h397v-108l-133 -47l-139 50l-8 58l-110 -2l17 -144l234 -82l245 78l32 330h-433l-10 138h456zM797 623z" />
    <glyph glyph-name="jingtai" unicode="&#xe63b;" 
d="M511 831q-120 0 -221.5 -58t-162 -158t-62.5 -219q2 103 51 190.5t131.5 138.5t179.5 51q98 0 181.5 -52.5t132 -142.5t48.5 -196q0 -34 24.5 -58.5t59.5 -24.5t59.5 24.5t24.5 58.5q0 91 -35.5 173.5t-95 142.5t-142.5 95t-173 35zM511 -61q119 0 220.5 58t162 158.5
t63.5 219.5q-3 -104 -52 -191.5t-131.5 -138t-179.5 -50.5q-98 0 -181.5 52t-132 142t-48.5 196q0 35 -24.5 59.5t-59.5 24.5t-59.5 -24.5t-24.5 -59.5q0 -91 35.5 -173.5t95.5 -142t142.5 -95t173.5 -35.5zM384 543h62v-318h-62v318zM577 543h61v-318h-61v318z" />
    <glyph glyph-name="yidong" unicode="&#xe6d0;" 
d="M934 883h-383q-36 0 -62 -26t-26 -62v-24h-1h-243q-37 0 -63 -26t-26 -63v-20h-108q-9 0 -15.5 -6.5t-6.5 -15.5t6.5 -15.5t15.5 -6.5h108h43h72q9 0 15.5 6.5t6.5 15.5t-6.5 15.5t-15.5 6.5h-72v20q0 17 12 28.5t29 11.5h248h1h27h15h167q16 0 28 -11.5t12 -28.5v-392
q0 -17 -12 -28.5t-28 -11.5h-167h-15h-27h-1h-248q-17 0 -29 11.5t-12 28.5v248h72q9 0 15.5 6.5t6.5 16t-6.5 16t-15.5 6.5h-72h-43h-43q-9 0 -15.5 -6.5t-6.5 -16t6.5 -16t15.5 -6.5h43v-249q0 -36 26 -62t63 -26h243h1v-219q0 -37 26 -63t62 -26h383q36 0 62 26t26 63
v813q0 36 -26 62t-62 26zM979 -18q0 -16 -11.5 -28t-28.5 -12h-393q-17 0 -28.5 12t-11.5 28v219h160q37 0 63 26t26 62v393q0 37 -26 63t-63 26h-160v23q0 17 11.5 28.5t28.5 11.5h393q17 0 28.5 -11.5t11.5 -28.5v-812zM740 12zM698 11.5q0 17.5 12.5 29.5t29.5 12t29 -12
t12 -29.5t-12 -29.5t-29 -12t-29.5 12t-12.5 29.5zM297 376l17 48h88l17 -48h49l-79 225h-57l-81 -225h46zM359 557h1l30 -96h-64zM680 488q-1 112 -113 113h-76v-225h76q112 0 113 112zM538 414v149h26q66 1 65 -75q1 -77 -65 -74h-26v0zM22 560zM0 560q0 10 6.5 16.5
t16 6.5t16 -6.5t6.5 -16t-6.5 -16t-16 -6.5t-16 6.5t-6.5 15.5v0z" />
    <glyph glyph-name="api" unicode="&#xe738;" 
d="M603 303l-84 -84l-154 154l84 84q10 11 10 26t-10.5 25t-25.5 10t-25 -10l-84 -84l-49 50q-10 10 -25.5 10t-25.5 -10l-77 -77q-78 -77 -84.5 -186.5t60.5 -193.5l-58 -57q-11 -11 -11 -26t11 -25q11 -11 25.5 -11t25.5 11l58 58q78 -61 176 -61q119 0 203 84l77 77
q10 10 10 25t-10 26l-50 49l84 84q11 11 11 26t-11 25q-10 11 -25 11t-26 -10zM492 41q-63 -63 -153 -63q-88 0 -152 63q-63 63 -63 152.5t63 152.5l52 51l255 -255v0v0l49 -49zM988 791q11 10 11 25t-10.5 25.5t-25.5 10.5t-26 -10l-57 -58q-84 66 -193.5 59.5
t-186.5 -83.5l-77 -76q-10 -11 -10 -26t10 -26l356 -356q11 -10 26 -10v0q15 0 25 10l77 77q84 84 84 204q0 98 -60 176zM856 404l-52 -51l-305 305l52 52q63 63 152.5 63t152.5 -63t63 -153q0 -89 -63 -153z" />
    <glyph glyph-name="comiisshequon" unicode="&#xe68e;" 
d="M823 431v-19q0 -104 -66.5 -182t-164.5 -89q41 -35 95 -35h30q23 0 38 -15t20 -32t13 -27t20 -3q5 3 11.5 12.5t16.5 24.5t17 25q9 11 20.5 23t18.5 17l7 6h-1q29 22 45 54.5t16 69.5v16q0 60 -39 104t-97 50zM533 743h-208q-108 0 -184.5 -80.5t-76.5 -193.5v-27
q0 -67 28 -124t77 -96l-1 1q44 -37 79 -83q13 -17 29.5 -43.5t28.5 -43.5t20 -22q13 -10 24.5 -3.5t16.5 21.5t15 35.5t20.5 39t31.5 31.5t48 13h53q108 0 184 80t76 194v27q0 113 -76 193.5t-185 80.5v0zM429 294q-71 0 -121.5 40.5t-50.5 97.5q0 8 5.5 13.5t13.5 5.5
t13.5 -5.5t5.5 -13.5q0 -42 39.5 -71.5t95 -29.5t95 29.5t39.5 71.5q0 8 5.5 13.5t13 5.5t13 -5.5t5.5 -13.5q0 -57 -50.5 -97.5t-121.5 -40.5v0z" />
    <glyph glyph-name="youxi" unicode="&#xe651;" 
d="M151 115l-59 -60q-17 -17 -39.5 -63t-36.5 -80.5t-14 -37.5q143 54 181 90l50 49q-54 50 -82 102zM823 738q39 -13 56 -19q14 -3 21 -6h2l37 36l15 -15q6 -7 14.5 -7t14.5 7l30 30q7 6 7 14.5t-7 15.5l-89 89q-7 7 -15.5 7t-14.5 -7l-30 -30q-6 -6 -6 -14.5t6 -15.5
l13 -12l-66 -69q4 0 12 -4zM41 734q6 -7 14.5 -7t14.5 7l15 15l37 -36h2q5 0 21 6q17 6 56 19q8 4 12 4l-66 69l15 15q7 6 7 14.5t-7 14.5l-30 30q-6 7 -14.5 7t-15.5 -7l-91 -91q-7 -7 -7 -15.5t7 -14.5zM930 55l-60 60q-27 -52 -79 -100l2 -1l1 -1l1 -2l1 -1l1 -1l2 -1
l1 -1l1 -1l1 -2l1 -1l1 -1l1 -1l2 -1l1 -1l1 -1l1 -1l1 -2l1 -1l1 -1l1 -1l1 -1l1 -1l1 -1l1 -1l1 -1l1 -1l2 -2l2 -1l1 -2l1 -1l2 -1l1 -2l1 -1l2 -1l1 -2l1 -1l2 -1l1 -1l1 -2l1 -1l2 -1q17 -17 62 -39.5t82 -36.5l37 -14q-6 16 -16 40.5t-34.5 73t-41.5 65.5zM843 663
q-36 12 -43 15q-93 34 -177 77q-67 35 -111 71q-54 -41 -111 -71q-84 -43 -177 -77q-7 -2 -21 -7t-22 -8v-25v-145v-15v-154v-51v-15v-4q0 -143 167 -252q46 -31 123 -62q15 -6 41 -15q26 9 41 15q54 22 123 62q167 107 167 252v409zM683 491h-278v-235q0 -13 27 -34.5
t53 -36.5l27 -14q4 2 11.5 6t26 15t32.5 21t25.5 22.5t11.5 20.5v107h-75v-64h-64v128h203v-171q0 -24 -17.5 -49t-43 -43.5t-50.5 -34t-42 -23.5l-18 -8q-7 3 -18.5 8.5t-41 22.5t-52 34.5t-41 43t-18.5 49.5v299h342v-64z" />
    <glyph glyph-name="browser" unicode="&#xe724;" 
d="M288 768q-13 0 -22.5 -9.5t-9.5 -22.5t9.5 -22.5t22.5 -9.5t22.5 9.5t9.5 22.5t-9.5 22.5t-22.5 9.5v0zM416 768q-13 0 -22.5 -9.5t-9.5 -22.5t9.5 -22.5t22.5 -9.5t22.5 9.5t9.5 22.5t-9.5 22.5t-22.5 9.5v0zM960 640h-896v128q0 26 19 45t45 19h768q26 0 45 -19t19 -45
v-128v0zM960 0q0 -26 -19 -45t-45 -19h-768q-26 0 -45 19t-19 45v576h896v-576v0zM896 896h-768q-53 0 -90.5 -37.5t-37.5 -90.5v-768q0 -53 37.5 -90.5t90.5 -37.5h768q53 0 90.5 37.5t37.5 90.5v768q0 53 -37.5 90.5t-90.5 37.5v0zM160 768q-13 0 -22.5 -9.5t-9.5 -22.5
t9.5 -22.5t22.5 -9.5t22.5 9.5t9.5 22.5t-9.5 22.5t-22.5 9.5v0z" />
    <glyph glyph-name="xiaoguo" unicode="&#xe635;" 
d="M279 859l53 -200l168 -61l-167 -63l-51 -200l-52 200l-169 60l168 63zM630 801l66 -133l127 -18l-109 -68l-6 -148l-66 133l-126 18l108 68zM299 324l29 -84l75 -20l-70 -33l-15 -88l-29 84l-75 20l70 33zM416 373l99 99q16 16 39 16t39 -16l150 -150l-177 -176l-150 149
q-16 16 -16 39t16 39v0zM777 288l-177 -177l152 -152q16 -16 39 -16t39 16l99 99q16 16 16 39t-16 39l-152 152v0zM436 327l126 -125l125 125l-125 125z" />
    <glyph glyph-name="shequ" unicode="&#xe688;" 
d="M924 652q30 48 45 90q12 33 8 61.5t-24 46.5q-18 17 -45 19t-56 -12q-13 -6 -24 -11q-11 -6 -15 -17t1.5 -22t16.5 -14.5t22 1.5q9 4 23 11q27 12 38 2q13 -11 1 -45q-20 -54 -66 -118q-153 -210 -284 -330v-1q-114 -107 -310 -250l-8 -6q-1 0 -2 -1t-2 -1
q-72 60 -113.5 146t-41.5 184q0 116 57.5 215t156 156.5t215.5 57.5q91 0 173 -37q11 -5 22 -0.5t16 15.5t0.5 22t-15.5 16q-93 41 -196 41q-98 0 -186.5 -36.5t-157.5 -105.5t-106 -157.5t-37 -186.5q0 -125 60 -234q-37 -49 -59 -103q-24 -61 13 -98q22 -21 57 -21
q27 0 60 13q36 15 80 42q124 -85 276 -85q98 0 186.5 36.5t157.5 105.5t105.5 158t36.5 186q0 146 -79 267v0zM139 -5q-42 -16 -54 -4q-10 10 0 36q14 36 38 72q22 -31 50 -58q9 -9 20 -19q-29 -16 -54 -27v0zM517 -44q-121 0 -224 64q195 141 311 251q132 122 284 329
q57 -99 57 -215t-57 -215t-156 -156.5t-215 -57.5v0zM358 629q0 34 24 59q25 24 59 24t58 -24q24 -25 24 -59t-24 -58t-58 -24q-35 0 -59 24t-24 58v0zM236 365q0 19 14 33t34 14q19 0 33 -14t14 -33q0 -20 -14 -34t-33 -14q-20 0 -34 14t-14 34v0zM623 136q0 13 9 22t21 9
q13 0 22 -9t9 -21.5t-9 -21.5t-22 -9q-12 0 -21 9t-9 21v0zM623 136z" />
    <glyph glyph-name="xiangyingshi" unicode="&#xe62b;" 
d="M939 469v256q0 17 -13 30t-30 13h-768q-17 0 -30 -13t-13 -30v-554q0 -17 13 -30t30 -13h299v-85h-86q-12 0 -20.5 -5t-12.5 -10.5t-6.5 -12.5t-2.5 -10v-5h384q0 -12 4.5 -21t10 -13t13 -6t10.5 -2.5t4 -0.5v0h214q1 0 4 0.5t10.5 2.5t13 6t10 13t4.5 21v427
q0 12 -4.5 20.5t-10 12.5t-13 6.5t-10.5 2.5h-4zM128 213v512h768v-256h-171h-4t-10.5 -2.5t-13 -6.5t-10 -12.5t-4.5 -20.5v-214h-555zM597 43v85h86v-85h-86zM832 0q-9 0 -15 6.5t-6 15t6 15t15 6.5t15 -6.5t6 -15t-6 -15t-15 -6.5zM939 85h-214v342h214v-342z" />
    <glyph glyph-name="guoneiyou" unicode="&#xe6ca;" 
d="M565 -77q-69 -7 -136 5.5t-122 42t-104 72.5t-81 96.5t-52.5 114t-19.5 125t19 129.5q20 68 55.5 124t76.5 93t89 64t91.5 40.5t85.5 17.5q105 2 193.5 -26.5t147.5 -79t101.5 -116t55.5 -139.5t10 -149t-35 -145t-80.5 -126t-125 -94.5t-169.5 -48.5zM716.5 150
q6.5 4 12 19.5t1.5 18.5q-4 2 -8 1l-8 -2l-4 -2q-2 -2 -4.5 -5t-7 -9.5t-4.5 -11.5q1 -7 8.5 -10t14 1zM811 548q-20 -13 -35.5 -7.5t-22.5 15.5t-22 23.5t-33 17.5q-5 -2 -15 -5q-1 -4 -2.5 -14.5t-3 -14.5t-5 -10.5t-10.5 -9.5t-18 -5v-25h34v-15q-36 -7 -54.5 -20
t-28.5 -39h-18h-14.5t-14 0.5t-11.5 0.5t-12 1.5t-11 1.5t-13 2l-12.5 2.5l-15 3t-16.5 3.5q-7 22 -29 48.5t-30 49.5h-20l-83 -78q-18 -9 -37 -5.5t-32 -4.5v-5q6 -22 14.5 -68.5t14.5 -69.5q46 -45 99.5 -67.5t97.5 -0.5v-30t-0.5 -21t3 -20.5t12.5 -27.5q23 -9 24 -10
q4 15 11 20.5t18.5 6t29.5 -1.5q6 -14 20.5 -22t19.5 -12q-3 -3 -5.5 -6t-3.5 -4t-2 -3.5t-2 -6t-2 -10.5q10 2 16 5.5t8 8t2.5 8.5t-1 11t-1.5 11q53 5 86.5 36.5t46.5 81.5q-5 12 -16.5 38.5t-17.5 40.5q5 6 15 15t14 14q-16 2 -24.5 1.5t-15.5 2t-19 11.5q13 5 23.5 15
t20.5 15q-1 -8 -4 -25q13 8 43 34.5t45 29.5q0 23 8.5 45t11.5 44h-5z" />
    <glyph glyph-name="bianjiqi" unicode="&#xe612;" horiz-adv-x="1028" 
d="M487 460q0 -12 -9 -21t-21 -9h-406q-13 0 -21.5 9t-8.5 21v406q0 13 8.5 21.5t21.5 8.5h406q12 0 21 -8.5t9 -21.5v-406zM450 841q0 10 -7.5 17.5t-17.5 7.5h-348q-11 0 -18.5 -7.5t-7.5 -17.5v-348q0 -11 7.5 -18.5t18.5 -7.5h348q10 0 17.5 7.5t7.5 18.5v348zM1022 455
q0 -12 -9 -21t-21 -9h-411q-13 0 -21.5 9t-8.5 21v411q0 12 8.5 21t21.5 9h411q12 0 21 -9t9 -21v-411v0zM991 840q0 11 -7.5 18.5t-18.5 7.5h-355q-10 0 -17.5 -7.5t-7.5 -18.5v-352q0 -10 7.5 -17.5t17.5 -7.5h355q11 0 18.5 7.5t7.5 17.5v352zM644 759h290v-65h-290v65z
M644 620h290v-65h-290v65zM254 669l43 106q-21 8 -43 8q-50 0 -85 -35t-35 -84.5t35 -85t85 -35.5q42 0 74.5 26.5t42.5 66.5zM394 665q0 39 -21 72t-55 50l-47 -109l121 -35q2 11 2 22zM1028 -75q0 -12 -9 -21t-21 -9h-947q-12 0 -21 9t-9 21v406q0 12 9 21t21 9h947
q12 0 21 -9t9 -21v-406zM991 299q0 11 -7.5 18.5t-17.5 7.5h-889q-10 0 -17.5 -7.5t-7.5 -18.5v-341q0 -11 7.5 -18.5t17.5 -7.5h889q10 0 17.5 7.5t7.5 18.5v341zM196 142h125v-210h-125v210zM459 269h125v-337h-125v337zM724 80h125v-148h-125v148z" />
    <glyph glyph-name="kandahui" unicode="&#xe660;" horiz-adv-x="1126" 
d="M639 602q77 -2 130.5 -58.5t52.5 -134.5v-1q0 -12 8 -20.5t20 -8.5v0q12 0 20.5 8.5t8.5 20.5q2 78 57.5 132.5t132.5 52.5v0q12 0 20.5 8.5t8.5 20.5v0q0 12 -8.5 20.5t-19.5 8.5q-77 2 -130.5 58.5t-52.5 134.5v1q0 12 -8 20t-20 9v0q-12 0 -20.5 -8.5t-8.5 -20.5
q-1 -78 -57 -132.5t-132 -52.5h-1q-12 0 -20.5 -8.5t-8.5 -20.5v-1q0 -11 8.5 -19.5t19.5 -8.5zM857 763q19 -37 57.5 -78t73.5 -61q-36 -19 -76 -58.5t-60 -75.5q-19 37 -57 78t-74 61q36 19 76 58t60 76zM674 489h-323q-27 0 -47 -20t-20 -48v-209q0 -28 20 -48t47 -20
h323q27 0 46.5 20t19.5 48v209q0 28 -19.5 48t-46.5 20zM676 239q0 -14 -9.5 -23.5t-23.5 -9.5h-263q-13 0 -22.5 9.5t-9.5 23.5v155q0 14 9.5 23.5t22.5 9.5h263q14 0 23.5 -9.5t9.5 -23.5v-155v0zM886 290q0 -150 -4 -180q-7 -52 -22.5 -78.5t-58.5 -35.5
q-97 -20 -302.5 -20t-301.5 20q-43 9 -58.5 35.5t-22.5 78.5q-3 23 -3 207t3 206q7 53 22.5 79t58.5 35q116 25 280 22q82 14 121.5 30.5t39.5 39.5q-261 32 -476 -30q-94 -27 -111 -130q-13 -83 -19 -172.5t0 -186.5t25 -170q21 -82 105 -106q138 -40 337 -40t336 40
q86 25 107 109q16 65 22 187.5t-1 228.5q-10 5 -22.5 -14.5t-24 -51t-19.5 -59t-11 -44.5z" />
    <glyph glyph-name="node" unicode="&#xe627;" 
d="M683 -24h-335q-36 0 -68 18.5t-50 49.5l-168 291q-18 31 -18 67.5t18 67.5l168 291q18 31 50 49.5t68 18.5h335q37 0 68.5 -18.5t49.5 -49.5l168 -291q18 -31 18 -67.5t-18 -67.5l-168 -291q-18 -31 -49.5 -49.5t-68.5 -18.5zM348 795q-27 0 -50.5 -14t-37.5 -37
l-168 -291q-13 -23 -13 -50.5t13 -50.5l168 -291q14 -23 37.5 -37t50.5 -14h335q28 0 51.5 14t36.5 37l168 291q14 23 14 50.5t-14 50.5l-168 291q-13 23 -36.5 37t-51.5 14h-335zM495 340l-60 -34l-60 34l-1 69l59 34l62 -32v-71zM769 368l-11 -6l-11 6v13l11 6l11 -6v-13z
M333 411l-59 32l-60 -34v-91l39 24v44l21 12l20 -11v-47l39 -22v0h2zM656 500l-39 23v-90l-21 12l-59 -34v-69l59 -35l60 35v158v0zM596 353l-20 11v23l20 11l21 -11v-23l-21 -11v0zM737 362v25l21 11l20 -11v-22l39 24v22l-59 32l-60 -34v-69l60 -34l39 23z" />
    <glyph glyph-name="xingneng" unicode="&#xe653;" 
d="M461 1h-3q-9 1 -15 7.5t-6 15.5l-41 605l-109 -363q-2 -8 -9 -13t-15 -5q-19 1 -24 19l-38 155l-68 -68q-8 -7 -18 -7h-49v50h39l92 91q10 11 24 7t17 -18l28 -111l122 409q3 8 10.5 13t16 4t15 -7.5t6.5 -15.5l41 -616l109 326q5 15 21.5 16t24.5 -13l76 -154l28 55
q7 14 22 14h198v-50h-183l-42 -85q-7 -13 -22.5 -13t-22.5 13l-72 144l-129 -388q-6 -17 -24 -17z" />
    <glyph glyph-name="touzidalao" unicode="&#xe618;" 
d="M486 38l-6 -6h-6l-404 691v7l7 6h179q3 0 6 -1.5t5 -3.5l2 -1l307 -519v-19zM877 742q6 0 6 -19v0l-256 -429q-6 -6 -6 0l-90 160l160 269l13 19h173zM915 333h-147v-71q13 0 19 7h19q32 0 52 -7q25 -12 38 -25t26 -39q6 -12 6 -51q0 -25 -13 -51t-25 -38
q-16 -16 -45 -26q-19 -6 -51 -6q-39 0 -77 19q-26 17 -45 64l64 19q13 -26 19 -32q26 -13 39 -13q19 0 25 7q7 0 19.5 12.5t12.5 19.5q0 2 3.5 10t3.5 15q0 26 -7 32q-1 2 -3 7.5t-10 5.5q-12 13 -25 13q-3 0 -14 3t-18 3q-26 0 -39 -6q-12 0 -38 -13l6 198h205v-57z" />
    <glyph glyph-name="qiuzhi" unicode="&#xe617;" 
d="M512 806q-114 0 -211.5 -56.5t-154 -154t-56.5 -211.5t56.5 -211.5t154 -154t211.5 -56.5t211 56.5t153 154t56 211.5q1 114 -55.5 211.5t-153.5 154t-211 56.5zM512 73q-165 0 -223 85q-11 15 -14 28q0 97 69 166.5t166 69.5q-58 0 -99 41.5t-41 100.5q0 58 41.5 100.5
t100.5 42.5t100.5 -41.5t41.5 -101.5q0 -57 -41 -98t-99 -41q98 0 166.5 -69.5t68.5 -167.5q0 -3 -4 -13t-19.5 -28.5t-39 -34t-69.5 -27.5t-105 -12zM893 43q62 69 95.5 156.5t33.5 184.5q0 104 -40.5 198.5t-108.5 163.5t-162.5 109.5t-198.5 40.5q-211 0 -361.5 -150.5
t-150.5 -361.5v-7q0 -36 2 -54q3 -30 14 -65q43 -168 181 -277t315 -109q98 0 187 35.5t158 97.5l102 -97q4 -4 18 -4q9 0 15 6q6 8 7.5 18.5t-4.5 17.5zM512 -60q-91 0 -173 35t-141.5 94.5t-94.5 141.5t-35 173t35 173t94.5 141.5t141.5 94.5t173 35t173 -35t141.5 -94.5
t94.5 -141.5t35 -172.5t-35.5 -173t-95 -142t-141.5 -94.5t-172 -35z" />
    <glyph glyph-name="bd_jiaocheng" unicode="&#xe605;" 
d="M920 490v-143l35 -39l-66 -58l-61 58l37 40v118q-166 -67 -291 -124q-32 -14 -59 -14.5t-59 11.5q-225 84 -339 138q-51 24 -52 41.5t53 37.5q48 18 167 64t161 61q31 13 45 17t34 3t42 -12q39 -16 170.5 -68t178.5 -71q23 -10 34 -18t8.5 -14.5t-6.5 -10.5t-16 -9.5
t-16 -7.5v0v0v0zM583 283q23 10 84 38t96 43v-236q-4 -4 -11 -10.5t-31 -23t-50.5 -28.5t-68.5 -22.5t-86 -10.5q-35 0 -68 5.5t-58.5 13.5t-48 18t-38 20.5t-27 18.5t-17 13.5l-5.5 5.5v220q26 -10 187 -65q36 -13 72 -14t70 14v0v0v0zM583 283z" />
    <glyph glyph-name="zengjia" unicode="&#xe663;" 
d="M869 831h-471q-38 0 -64.5 -27t-26.5 -66v-483q0 -39 26.5 -66.5t64.5 -27.5h471q38 0 64.5 27.5t26.5 66.5v483q0 39 -26.5 66t-64.5 27zM820 448h-140v-143h-93v143h-140v96h140v143h93v-143h140v-96zM720 94v-1q0 -21 -15 -36.5t-37 -16.5h-428q-21 1 -36.5 16.5
t-15.5 36.5v1v438q0 23 15.5 38.5t36.5 15.5h7v62h-28q-38 0 -64.5 -27.5t-26.5 -66.5v-483q0 -39 26.5 -66t64.5 -27h471q38 0 64.5 27t26.5 66v29h-61v-6v0z" />
    <glyph glyph-name="javascript" unicode="&#xe74c;" 
d="M0 896h1024v-1024h-1024v1024zM940 116q-6 38 -35 67.5t-93 55.5q-5 2 -22.5 9.5t-24.5 11.5t-16.5 11.5t-13.5 15.5q-5 20 -2 31q5 19 24.5 26.5t40.5 1.5q28 -9 42 -39q44 29 74 48q-14 24 -24 34q-41 45 -121 44l-31 -4q-47 -12 -72 -43q-37 -42 -29 -101.5t53 -89.5
q23 -17 61.5 -33t63 -29.5t29.5 -31.5q7 -35 -19 -50t-65 -10q-25 6 -41.5 19t-33.5 38l-78 -45q3 -7 7.5 -14t7 -10t10 -11.5t10.5 -11.5q37 -37 100 -48t120 13t73 78q10 30 3 70zM557 425h-96v-123.5v-123.5v-30.5v-29.5t-0.5 -23t-2 -21t-3.5 -12q-7 -14 -20.5 -19.5
t-25 -5t-21.5 4.5q-19 9 -36 36l-5 8l-78 -48q21 -43 57 -64q58 -35 136 -18q56 16 78 61q6 11 10 23t5.5 30t1.5 25.5v33.5v30v83v97.5v83.5v2z" />
    <glyph glyph-name="shengcheng" unicode="&#xe615;" 
d="M894 -53h-764q-36 0 -60.5 24.5t-24.5 60.5v85q0 35 24.5 60t60.5 25v509q0 36 24.5 60.5t60.5 24.5h594q36 0 60.5 -24.5t24.5 -60.5v-510q36 0 60.5 -24.5t24.5 -60.5v-85q0 -35 -25 -59.5t-60 -24.5zM809 711h-594v-552h594v552zM342 584h340q17 0 29.5 -12.5
t12.5 -30t-12.5 -30t-29.5 -12.5h-340q-18 0 -30 12.5t-12 30t12 30t30 12.5zM342 372h340q17 0 29.5 -12.5t12.5 -30.5t-12.5 -30t-29.5 -12h-340q-18 0 -30 12t-12 30t12 30.5t30 12.5z" />
    <glyph glyph-name="qingchugeshi" unicode="&#xe664;" 
d="M501 33h-168l-270 270l531 532l354 -354zM204 303l170 -170h85l64 64l-212 213zM381 481l213 -213l213 213l-213 212zM626 450h-2q-1 0 -1 1t1 1h2q2 0 2 1v1v0q0 2 -2 2h-9l2 -3v0h1q0 -1 -1 -1h-1v0l-5 5v0v0l5 5v0q1 1 1.5 0.5t0.5 -1.5v0h-1v0v0l-2 -3h9v0q4 0 4 -4
v-1v0q0 -3 -4 -3z" />
    <glyph glyph-name="pingtai" unicode="&#xe60f;" 
d="M879 687h-729q-20 0 -33.5 -11.5t-13.5 -30.5v-473q0 -15 13 -28.5t29 -13.5h292l-7 -51h-57q-15 0 -25.5 -15.5t-10.5 -32.5h346q4 13 -6 30.5t-25 17.5h-57l-8 51h292q16 0 29 13.5t13 28.5v473q0 19 -12.5 30.5t-29.5 11.5zM874 251h-719v389h719v-389zM351.5 503
q19.5 0 33 14t13.5 33.5t-13.5 33.5t-33 14t-33 -14t-13.5 -33.5t13.5 -33.5t33 -14zM734 440h-196v-136h196v136v0zM734 577h-196v-16h196v16v0zM734 545h-196v-15h196v15v0zM491 440h-196v-15h196v15zM491 409h-196v-16h196v16zM491 383h-196v-16h196v16zM491 351h-196
v-16h196v16zM491 319h-196v-15h196v15z" />
    <glyph glyph-name="guowaiyou" unicode="&#xe646;" 
d="M477 842q130 4 234.5 -42.5t161 -124.5t86 -173.5t12.5 -194t-61.5 -181.5t-135.5 -139t-210 -65q-93 -6 -176 15.5t-145 65t-107.5 105t-67 132t-19 149t31.5 154.5q34 88 103 159.5t155 107.5q8 2 23.5 7.5t22.5 7.5t21 5.5t30.5 6t40.5 5.5zM573 368v37q-6 -3 -18 -8
t-14 -6q-7 11 -9 14q-6 38 5 60q5 2 23 9l83 -32v46q13 4 58 35.5t52 42.5q-11 27 -18 46h41v-23l14 -5l9 10q-52 104 -152 119q1 -2 4.5 -7t4.5 -6.5t3 -6t2.5 -7t0.5 -6.5t-1 -8q-3 -21 -10 -29t-22 -8q-1 2 -1.5 6.5t-0.5 6t-1 5t-1.5 5t-1.5 3.5t-2 3t-2.5 2t-3.5 1.5
t-4 0.5t-5 -1l-51 32l14 28q13 6 18.5 12t13.5 20v5q-35 5 -48.5 2.5t-38.5 -16.5l-51 41l-69 -9h1q13 -4 18 -10l4 -4v-4q-109 1 -216 -69l-14 -51q7 2 19 7t22.5 9t23.5 7.5t27 2.5t27 -7q24 -11 32.5 -27.5t7 -32.5t0 -41t11.5 -47q10 -19 70 -67.5t127 -89t89 -36.5
q-8 6 -13.5 19t-9.5 18q-6 1 -47 9zM735 33v23q28 8 50.5 32.5t44 60t33.5 49.5l-4 14q-4 7 -33.5 26.5t-67 38t-72 24t-48.5 -14.5l-8 -20t-9 -23t-6.5 -22t-4.5 -27q6 -15 26.5 -35t24.5 -34q7 -24 0.5 -50t-15.5 -42t-11.5 -36.5t12.5 -32.5h5q10 34 55 69h28z" />
    <glyph glyph-name="ccgl-yundanchukusaomiao-4" unicode="&#xe67a;" 
d="M511 412l-428 202q-3 1 -3 4t3 4l424 203q1 1 2 1t2 -1l424 -201q2 -1 2 -4.5t-2 -4.5l-420 -203q-2 -1 -4 0zM511 412l-428 202q-3 1 -3 4t3 4l424 203q1 1 2 1t2 -1l424 -201q2 -1 2 -4.5t-2 -4.5l-420 -203q-2 -1 -4 0zM858 185l79 -38q3 -1 3 -4t-3 -5l-422 -204
q-3 -1 -5 0l-429 201q-3 2 -3 5t3 4l79 38l83 42l269 -118l267 118zM858 185l79 -38q3 -1 3 -4t-3 -5l-422 -204q-3 -1 -5 0l-429 201q-3 2 -3 5t3 4l79 38l83 42l269 -118l267 118zM858 426l79 -38q3 -1 3 -4t-3 -4l-422 -205q-1 -1 -2.5 -1t-2.5 1l-429 202q-3 1 -3 4t3 5
l79 38l82 42l264 -123q3 -2 6 -2t6 2l263 123zM858 426l79 -38q3 -1 3 -4t-3 -4l-422 -205q-1 -1 -2.5 -1t-2.5 1l-429 202q-3 1 -3 4t3 5l79 38l82 42l264 -123q3 -2 6 -2t6 2l263 123z" />
    <glyph glyph-name="git" unicode="&#xe681;" 
d="M1005 430l-447 447q-20 19 -47 19t-47 -19l-104 -104l79 -78q19 9 41 9v0q40 0 68 -28t28 -68q0 -22 -9 -41l128 -128q19 9 41 9v0q40 0 68 -28t28 -68t-28 -68t-68 -28t-68 28t-28 68q0 22 9 41l-128 128q-4 -2 -9 -4v-266q28 -11 46 -35.5t18 -55.5q0 -40 -28 -68
t-68 -28t-68 28t-28 68q0 31 18 55.5t46 35.5v266q-28 11 -46 35.5t-18 55.5q0 22 9 41l-78 79l-296 -296q-19 -20 -19 -47t19 -47l447 -447q20 -19 47 -19t47 19l445 445q19 20 19 47t-19 47z" />
    <glyph glyph-name="octicon-star" unicode="&#xe610;" 
d="M960 512l-314 41l-134 279l-134 -279l-314 -41l230 -209l-59 -303l277 149l277 -149l-59 303z" />
    <glyph glyph-name="module" unicode="&#xe72b;" 
d="M565 -32v519h363v-519h-363zM565 798h363v-260h-363v260zM98 175h415v-207h-415v207zM98 798h415v-571h-415v571z" />
    <glyph glyph-name="luuman" unicode="&#xe61a;" 
d="M944 315l-84 -102l34 -3q-5 -3 -12.5 -9t-31 -21t-46 -27t-53.5 -22.5t-58 -11.5q-26 -1 -50.5 11t-40 29.5t-27 36.5t-17 31t-5.5 13v211h127v63h-121v84q40 13 65 48t25 79q0 55 -39.5 94.5t-94.5 39.5h-3q-55 0 -94.5 -39.5t-39.5 -94.5q0 -44 25 -79t65 -48v-84h-121
v-63h127v-211q-2 -5 -5.5 -13.5t-16.5 -30t-28 -37.5t-39.5 -28.5t-51.5 -11.5q-43 2 -93.5 25t-79.5 44l-29 22l34 3l-85 102l-28 -123l36 8q3 -5 8.5 -14t24 -33.5t38.5 -46t50.5 -45t60.5 -37.5q44 -20 104 -50t95 -46.5t44 -18.5h1q10 2 45 18.5t94.5 46.5t102.5 50
q30 14 59.5 37t50 46t37 45t25 34.5t8.5 13.5l36 -8l-28 123v0zM514 651h-2q-30 0 -51.5 21.5t-21.5 52.5q0 30 21.5 51t51.5 21h3q30 0 51.5 -21t21.5 -51q0 -31 -21.5 -52.5t-51.5 -21.5h-1z" />
    <glyph glyph-name="praise" unicode="&#xe61c;" 
d="M699 376q5 -5 8 -6h2l1 1q2 1 8 3q17 6 15 20l-1 2l-1 1q-21 7 -36 6h-2v-2q-1 -3 -2 -9v-9l-1 -2l3 -1q2 -1 6 -4zM708 288q-12 0 -17 -7.5t0 -19.5l1 -1h1q7 -2 14 -2q26 0 28 17v1l-1 1q-9 11 -26 11zM693 139q-10 0 -15 -6q-4 -4 -3 -10v-1v0q7 -11 22 -11q11 0 16 7
l1 1q3 6 -1 11q-5 9 -20 9zM922 512v1h-1q-18 11 -73 13q-26 1 -36 3q8 16 17 32q3 5 6 16q2 7 4 11q0 2 3 5q4 6 5 10q2 12 -2 38q-18 119 -65 165v0l-1 1q-6 1 -16 9q-13 9 -22 11q-18 5 -41 5q-38 0 -73 -11l-2 -1v-2q1 -5 -1 -10q-2 -3 -2 -5v-1v-1q12 -22 2 -97
q-5 -35 -5 -51q-1 -34 -20 -66q-17 -9 -32 -26q-30 -20 -121 -29q-17 -2 -22 -2l-1 -1l-1 -1q-7 -11 -16 -13l-2 -1v-2q1 -2 -1 -5q-1 -3 -1 -6q-10 -5 -23 -25q-9 -13 -14 -18h-1v-2q1 -22 -15 -38q-18 -18 -48 -18h-4q-1 2 1 6q4 7 3 14l-1 1l-1 1q-9 5 -6 27q3 14 1 19v1
q-5 6 -18 11l-4 2l-1 -1q-37 -19 -128 -19h-31h-2v-2q-4 -12 -5 -42q-1 -41 -10 -57l-1 -1l2 -2q6 -5 2 -18q-1 -6 -1 -8q-3 -27 -3 -86q0 -39 -1 -57v-1l1 -1q8 -10 7 -43q-1 -29 3 -41q-1 -2 -2 -5q-7 -11 -7 -19q-1 -7 7 -9q3 -1 3 -3q0 -9 3 -25q3 -13 3 -20v-17
q0 -11 0.5 -17t2 -15t5.5 -14.5t11 -7.5q21 -8 91 -12q12 0 24 -1q24 -2 38 -2q45 0 56 16v1q2 7 3 31q1 13 1.5 20t2 17t5.5 14.5t9 4.5q4 0 8 -2q3 -4 6 -14q3 -11 6 -16q2 -2 5 -2h1v-0.5v-0.5q0 -3 1 -4t3 -5q13 -19 21 -21q6 -2 15 -2t28 2q15 3 22 3h1q3 0 9 -2
q7 -1 10 -1q6 -1 16 0q14 2 21 1q17 -1 61 -3q60 -4 90 -5q6 0 17 -1q19 -1 28 0q17 2 44 11q24 9 35 9l1 1l1 1q2 6 14 11q3 2 4 2l1 1q5 5 8 17q2 7 3 11q4 9 18 28q14 20 18 30q1 2 0 7q0 5 1 7t6 7q6 6 7 11q2 7 2 21q-1 10 0 14q1 12 7 37q8 39 9 61q8 13 7 51
q-1 24 1 36q0 3 2 9q3 8 3 12q-1 2 -4 9q-3 5 -3 6q1 1 4 5q6 5 7 7q3 6 4 12q3 25 1 57.5t-8 53.5zM245 443q2 0 4 1t3 1q-2 -5 -7 -10q1 4 0 8zM834 370h-1q-6 1 -12 1q-10 0 -16.5 -5.5t-6.5 -12.5q-1 -12 15 -15h1h1v3l1 -3q1 1 5 2q10 2 13 3q6 2 20 9q22 10 30 10
q7 -33 -6 -87q-15 -22 -71 -22q-5 0 -21 1h-14h-1l-1 -1q-1 -1 -2 -5q-2 -3 -3 -4l-3 -1l1 -2q3 -10 12 -17l1 -1h1q47 1 96 13q0 -1 -1 -3q-2 -4 -2 -7t2 -8q2 -4 1 -5q0 -5 -5 -23q-5 -16 -6 -21q-1 -6 -2 -14q-1 -10 -2 -15t-5.5 -9.5t-11.5 -6.5q-2 0 -7 2q-5 1 -7 2
q-8 0 -29 -2q-13 -1 -20 -2h-1.5h-2.5q-24 0 -28 -8q-4 -6 1 -15l1 -1h1q9 -1 20 -1h20q12 1 21 1q18 0 30 -3q-2 -12 -16 -35q-11 -19 -14 -30q-43 -37 -125 -37q-29 0 -88 5q-62 6 -92 6v0q-3 0 -15 -1h-30q-35 0 -45 7q-7 5 -12 26q-3 10 -4.5 15.5t-7 11.5t-13.5 7
q-9 1 -26 -5q-14 -5 -20 -5t-11 2q-13 25 -22 92q-3 19 -5 28q1 2 4 7q4 9 4 15q1 3 -0.5 5.5t-7.5 2.5h-3q0 14 -3 42q-4 22 -2 47t13 41v1q1 6 -4 10q-2 2 -2 3q9 5 32 14q17 7 26.5 11.5t22 13.5t18 22t5.5 31q6 6 15 19q12 15 19 21q4 1 10 3t11 2h2q5 1 8 7l1 1
q93 11 124 37q5 -1 10 2q4 1 7 1v0h1l1 1q33 38 46 110q11 -4 22 -4q20 0 37 15t25 35l1 1l-1 1q-1 9 -7 26q-2 7 -2 8l-1 1l-1 1q-4 1 -14 8q-26 17 -40 17q-6 0 -12 -3q0 24 2 34q14 8 37 8q5 0 10 -1q33 -4 56 -25q32 -29 47 -123q10 -58 -17 -84l-1 -1v-2q1 -5 -2 -10
q-5 -6 -4 -12q-2 -2 -5 -4q-21 -18 -16 -35v-1h1q13 -8 38 -8q8 0 22 1h22q35 0 49 -13q10 -70 -10 -94q-21 -4 -54 -20zM279 50q6 9 8 14h1q2 -3 2 -7q-6 -2 -11 -7zM270 -31q4 18 20 47q5 9 8 14q9 -2 22 3q4 1 6 2q-2 -3 -2 -5q-3 0 -7 -2q-2 -1 -2 -2h-1h-1
q-5 -8 -14 -22q-16 -26 -26 -35h-3zM674 735q25 -11 31 -21q-3 -39 -52 -34q1 10 4 28q3 23 3 33q4 -2 14 -6zM165 191q6 7 8 10q-3 -10 -16 -25q-4 -5 -7 -8v0q3 9 15 23zM200 238q-16 -28 -24 -33q4 6 6 13q2 3 16 21q7 10 15 20q-4 -6 -13 -21zM255 352q2 -4 -1 -12
l-0.5 -1t-0.5 -2q-11 1 -18 -1q8 12 20 16zM260 131l-4 -2q1 1 3.5 4.5t3.5 5.5l1 1v1q0 7 5 9q0 -2 1 -5q2 -6 2 -10q-5 -1 -12 -4zM260 394q-4 -5 -5 -7q-8 1 -15 -2q10 19 27 31q2 -10 -7 -22zM186 314q8 12 20 28q-9 -16 -20 -28zM134 146q7 6 7 13q1 1 4 3v0
q0 -1 -1 -3t-2 -2q-7 -12 -13 -17q1 3 5 6zM137 95q8 10 8 17q14 15 38 51q18 28 28 40q6 8 14 22q5 8 7 10q1 3 5 8q11 13 9 25q-2 7 -9 7q-10 0 -20 -11q-1 -1 -2 -3q26 35 40 62v-10q0 -11 3 -16q-7 -11 -7 -37q0 -18 -2 -25q-1 -3 -6 -9q-5 -4 -7 -7q-5 -8 -13 -20
q-18 -28 -28 -40q-3 -5 -13 -16q-16 -19 -22 -28q-3 -4 -8 -12q-12 -20 -21 -27q-2 9 6 19zM145 43q7 6 9 10q18 21 45 67q11 8 25 30q15 24 26 32q4 -9 -9 -24q-3 -4 -4 -6q-4 -4 -6 -8q-12 -17 -18 -22l-1 -1q-9 -16 -29 -45q-29 -41 -40 -65v-1v-1q1 -10 18 -12h2l1 1
l0.5 0.5l0.5 0.5q-2 -13 5 -18h1h3q18 0 33 20q-1 -2 -2 -5l-1 -3q-4 -13 -5 -19q-2 0 -11 1q-13 1 -20.5 2t-16 6t-11.5 13q-1 3 -3.5 17.5t-2.5 16.5q1 4 11 13zM222 28q9 18 14 25q3 4 8 11q7 12 14 17h1v1q2 10 13 24q3 5 4 6v-3q0 -7 2 -10q-10 -12 -27 -41
q-24 -39 -41 -53q4 7 12 23zM124 329q0 1 1 5t1 7q2 -1 4 -6zM165 332q-13 -21 -28 -35q3 6 11 17q8 12 11 19h3t3 -1zM175 423q-9 -11 -11 -20q-8 -6 -19 -21q-8 -13 -14 -18q4 10 17 27q15 18 19 29q5 2 10 10q4 6 6 8v0l1 -1v0q-2 -6 -9 -14zM505 3zM133 416q1 1 1 1.5
v0.5q3 7 2 12q1 0 5 2q2 0 4 1q-2 -4 -7 -10q-3 -4 -5 -7z" />
    <glyph glyph-name="goujian" unicode="&#xe60b;" 
d="M23 595l473 -258q7 -3 15 -3q3 0 15 3l480 258q17 10 15 29q0 20 -16 28l-474 240q-15 8 -29 0l-478 -240q-8 -3 -13 -11.5t-5 -16.5q0 -20 17 -29zM516 828l405 -206l-410 -220l-405 220zM999 418l-95 48l-68 -37l80 -41l-410 -220l-405 220l85 43l-68 37l-100 -50
q-18 -9 -18 -28.5t17 -28.5l473 -258q7 -4 16 -4q8 0 15 4l479 258q17 9 16.5 28.5t-17.5 28.5zM999 195l-90 43l-68 -37l75 -36l-410 -221l-405 221l79 35l-68 37l-94 -42q-18 -9 -18 -28.5t17 -28.5l473 -258q12 -4 16 -4q8 0 15 4l479 258q17 9 16.5 28.5t-17.5 28.5z
" />
  </font>
</defs>
</svg>
